<mxfile host="app.diagrams.net" modified="2021-08-11T02:43:45.938Z" agent="5.0 (Windows NT 10.0; Win64; x64) AppleWebKit/537.36 (KHTML, like Gecko) Chrome/92.0.4515.131 Safari/537.36 Edg/92.0.902.67" etag="umG7UM45rDCI5CDPGGUL" version="14.9.5" type="github">
  <diagram name="Page-1" id="e3a06f82-3646-2815-327d-82caf3d4e204">
    <mxGraphModel dx="2234" dy="98" grid="1" gridSize="10" guides="1" tooltips="1" connect="1" arrows="1" fold="1" page="1" pageScale="1.5" pageWidth="1169" pageHeight="826" background="none" math="0" shadow="0">
      <root>
        <mxCell id="0" style=";html=1;" />
        <mxCell id="1" style=";html=1;" parent="0" />
        <mxCell id="81p-GkbOqXq8LAXijxVz-117" value="redis集群" style="whiteSpace=wrap;html=1;fillColor=#f8cecc;fontSize=14;strokeColor=none;verticalAlign=top;" vertex="1" parent="1">
          <mxGeometry x="579.13" y="2267.5" width="170" height="149" as="geometry" />
        </mxCell>
        <mxCell id="81p-GkbOqXq8LAXijxVz-94" value="MySQL代理" style="whiteSpace=wrap;html=1;fillColor=#f8cecc;fontSize=14;strokeColor=none;verticalAlign=top;" vertex="1" parent="1">
          <mxGeometry x="1114" y="1757" width="140" height="138" as="geometry" />
        </mxCell>
        <mxCell id="81p-GkbOqXq8LAXijxVz-93" value="redis集群" style="whiteSpace=wrap;html=1;fillColor=#f8cecc;fontSize=14;strokeColor=none;verticalAlign=top;" vertex="1" parent="1">
          <mxGeometry x="575" y="1746" width="170" height="149" as="geometry" />
        </mxCell>
        <mxCell id="81p-GkbOqXq8LAXijxVz-88" value="&lt;span style=&quot;color: rgb(0 , 0 , 0) ; font-family: &amp;#34;helvetica&amp;#34; ; font-size: 12px ; font-style: normal ; font-weight: 400 ; letter-spacing: normal ; text-align: left ; text-indent: 0px ; text-transform: none ; word-spacing: 0px ; background-color: rgb(248 , 249 , 250) ; display: inline ; float: none&quot;&gt;理财商城+产品销售&lt;/span&gt;" style="whiteSpace=wrap;html=1;fillColor=#d5e8d4;fontSize=14;strokeColor=none;verticalAlign=top;" vertex="1" parent="1">
          <mxGeometry x="600.07" y="1944.73" width="119.93" height="112.27" as="geometry" />
        </mxCell>
        <mxCell id="81p-GkbOqXq8LAXijxVz-80" value="" style="whiteSpace=wrap;html=1;fillColor=#FFD470;gradientColor=none;fontSize=14;strokeColor=none;verticalAlign=top;" vertex="1" parent="1">
          <mxGeometry x="1114" y="1340" width="120" height="380" as="geometry" />
        </mxCell>
        <mxCell id="81p-GkbOqXq8LAXijxVz-77" value="" style="whiteSpace=wrap;html=1;fillColor=#d5e8d4;fontSize=14;strokeColor=none;verticalAlign=top;" vertex="1" parent="1">
          <mxGeometry x="594" y="1410" width="140" height="230" as="geometry" />
        </mxCell>
        <mxCell id="81p-GkbOqXq8LAXijxVz-75" value="" style="whiteSpace=wrap;html=1;fillColor=#EDEDED;fontSize=14;strokeColor=none;verticalAlign=top;" vertex="1" parent="1">
          <mxGeometry x="832" y="1320" width="140" height="380" as="geometry" />
        </mxCell>
        <mxCell id="81p-GkbOqXq8LAXijxVz-73" value="" style="whiteSpace=wrap;html=1;fillColor=#dae8fc;fontSize=14;strokeColor=none;verticalAlign=top;" vertex="1" parent="1">
          <mxGeometry x="314" y="1260" width="140" height="560" as="geometry" />
        </mxCell>
        <mxCell id="81p-GkbOqXq8LAXijxVz-5" value="" style="shape=image;html=1;verticalAlign=top;verticalLabelPosition=bottom;labelBackgroundColor=#ffffff;imageAspect=0;aspect=fixed;image=https://cdn4.iconfinder.com/data/icons/logos-brands-5/24/nginx-128.png" vertex="1" parent="1">
          <mxGeometry x="319.63" y="1270" width="128" height="128" as="geometry" />
        </mxCell>
        <mxCell id="81p-GkbOqXq8LAXijxVz-6" value="" style="shape=image;html=1;verticalAlign=top;verticalLabelPosition=bottom;labelBackgroundColor=#ffffff;imageAspect=0;aspect=fixed;image=https://cdn4.iconfinder.com/data/icons/logos-brands-5/24/nginx-128.png" vertex="1" parent="1">
          <mxGeometry x="319.63" y="1640" width="128" height="128" as="geometry" />
        </mxCell>
        <mxCell id="81p-GkbOqXq8LAXijxVz-7" value="" style="shape=image;html=1;verticalAlign=top;verticalLabelPosition=bottom;labelBackgroundColor=#ffffff;imageAspect=0;aspect=fixed;image=https://cdn4.iconfinder.com/data/icons/logos-brands-5/24/nginx-128.png" vertex="1" parent="1">
          <mxGeometry x="334.5" y="2117" width="128" height="128" as="geometry" />
        </mxCell>
        <mxCell id="81p-GkbOqXq8LAXijxVz-11" value="" style="shape=flexArrow;endArrow=classic;html=1;" edge="1" parent="1">
          <mxGeometry width="50" height="50" relative="1" as="geometry">
            <mxPoint x="383.13" y="1480" as="sourcePoint" />
            <mxPoint x="383.13" y="1410" as="targetPoint" />
          </mxGeometry>
        </mxCell>
        <mxCell id="81p-GkbOqXq8LAXijxVz-12" value="" style="shape=flexArrow;endArrow=classic;html=1;" edge="1" parent="1">
          <mxGeometry width="50" height="50" relative="1" as="geometry">
            <mxPoint x="383.13" y="1559" as="sourcePoint" />
            <mxPoint x="383.63" y="1630" as="targetPoint" />
          </mxGeometry>
        </mxCell>
        <mxCell id="81p-GkbOqXq8LAXijxVz-13" value="" style="verticalLabelPosition=bottom;aspect=fixed;html=1;verticalAlign=top;strokeColor=none;align=center;outlineConnect=0;shape=mxgraph.citrix.1u_2u_server;" vertex="1" parent="1">
          <mxGeometry x="614.13" y="1436.95" width="100" height="39.1" as="geometry" />
        </mxCell>
        <mxCell id="81p-GkbOqXq8LAXijxVz-14" value="" style="verticalLabelPosition=bottom;aspect=fixed;html=1;verticalAlign=top;strokeColor=none;align=center;outlineConnect=0;shape=mxgraph.citrix.1u_2u_server;" vertex="1" parent="1">
          <mxGeometry x="614.13" y="1525.95" width="100" height="39.1" as="geometry" />
        </mxCell>
        <mxCell id="81p-GkbOqXq8LAXijxVz-15" value="" style="shape=image;html=1;verticalAlign=top;verticalLabelPosition=bottom;labelBackgroundColor=#ffffff;imageAspect=0;aspect=fixed;image=https://cdn4.iconfinder.com/data/icons/logos-brands-5/24/nginx-128.png" vertex="1" parent="1">
          <mxGeometry x="838" y="1330" width="128" height="128" as="geometry" />
        </mxCell>
        <mxCell id="81p-GkbOqXq8LAXijxVz-16" value="" style="shape=image;html=1;verticalAlign=top;verticalLabelPosition=bottom;labelBackgroundColor=#ffffff;imageAspect=0;aspect=fixed;image=https://cdn4.iconfinder.com/data/icons/logos-brands-5/24/nginx-128.png" vertex="1" parent="1">
          <mxGeometry x="842" y="1561" width="128" height="128" as="geometry" />
        </mxCell>
        <mxCell id="81p-GkbOqXq8LAXijxVz-17" value="" style="verticalLabelPosition=bottom;aspect=fixed;html=1;verticalAlign=top;strokeColor=none;align=center;outlineConnect=0;shape=mxgraph.citrix.1u_2u_server;" vertex="1" parent="1">
          <mxGeometry x="1124.88" y="1360" width="100" height="39.1" as="geometry" />
        </mxCell>
        <mxCell id="81p-GkbOqXq8LAXijxVz-18" value="" style="verticalLabelPosition=bottom;aspect=fixed;html=1;verticalAlign=top;strokeColor=none;align=center;outlineConnect=0;shape=mxgraph.citrix.1u_2u_server;" vertex="1" parent="1">
          <mxGeometry x="1124.88" y="1449" width="100" height="39.1" as="geometry" />
        </mxCell>
        <mxCell id="81p-GkbOqXq8LAXijxVz-19" value="" style="verticalLabelPosition=bottom;aspect=fixed;html=1;verticalAlign=top;strokeColor=none;align=center;outlineConnect=0;shape=mxgraph.citrix.1u_2u_server;" vertex="1" parent="1">
          <mxGeometry x="1124.88" y="1541.9" width="100" height="39.1" as="geometry" />
        </mxCell>
        <mxCell id="81p-GkbOqXq8LAXijxVz-20" value="" style="verticalLabelPosition=bottom;aspect=fixed;html=1;verticalAlign=top;strokeColor=none;align=center;outlineConnect=0;shape=mxgraph.citrix.1u_2u_server;" vertex="1" parent="1">
          <mxGeometry x="1124.88" y="1630.9" width="100" height="39.1" as="geometry" />
        </mxCell>
        <mxCell id="81p-GkbOqXq8LAXijxVz-26" value="" style="verticalLabelPosition=bottom;aspect=fixed;html=1;verticalAlign=top;strokeColor=none;align=center;outlineConnect=0;shape=mxgraph.citrix.1u_2u_server;" vertex="1" parent="1">
          <mxGeometry x="612.07" y="1987" width="100" height="39.1" as="geometry" />
        </mxCell>
        <mxCell id="81p-GkbOqXq8LAXijxVz-27" value="" style="endArrow=none;html=1;dashed=1;dashPattern=1 2;strokeWidth=2;" edge="1" parent="1">
          <mxGeometry width="50" height="50" relative="1" as="geometry">
            <mxPoint x="80" y="1930" as="sourcePoint" />
            <mxPoint x="1720" y="1930" as="targetPoint" />
          </mxGeometry>
        </mxCell>
        <mxCell id="81p-GkbOqXq8LAXijxVz-28" value="" style="endArrow=none;html=1;dashed=1;dashPattern=1 2;strokeWidth=2;" edge="1" parent="1">
          <mxGeometry width="50" height="50" relative="1" as="geometry">
            <mxPoint x="80" y="2110" as="sourcePoint" />
            <mxPoint x="1710" y="2090" as="targetPoint" />
          </mxGeometry>
        </mxCell>
        <mxCell id="81p-GkbOqXq8LAXijxVz-33" value="" style="group" vertex="1" connectable="0" parent="1">
          <mxGeometry x="134" y="2117" width="141" height="128" as="geometry" />
        </mxCell>
        <mxCell id="81p-GkbOqXq8LAXijxVz-34" value="" style="shape=image;html=1;verticalAlign=top;verticalLabelPosition=bottom;labelBackgroundColor=#ffffff;imageAspect=0;aspect=fixed;image=https://cdn3.iconfinder.com/data/icons/streamline-icon-set-free-pack/48/Streamline-17-128.png" vertex="1" parent="81p-GkbOqXq8LAXijxVz-33">
          <mxGeometry width="128" height="128" as="geometry" />
        </mxCell>
        <mxCell id="81p-GkbOqXq8LAXijxVz-35" value="&lt;font color=&quot;#222222&quot; face=&quot;arial, sans-serif&quot;&gt;&lt;span style=&quot;font-size: 24px ; background-color: rgb(255 , 255 , 255)&quot;&gt;H5&lt;/span&gt;&lt;/font&gt;" style="text;whiteSpace=wrap;html=1;" vertex="1" parent="81p-GkbOqXq8LAXijxVz-33">
          <mxGeometry x="41" y="58.9" width="39" height="30" as="geometry" />
        </mxCell>
        <mxCell id="81p-GkbOqXq8LAXijxVz-37" value="" style="shape=image;html=1;verticalAlign=top;verticalLabelPosition=bottom;labelBackgroundColor=#ffffff;imageAspect=0;aspect=fixed;image=https://cdn2.iconfinder.com/data/icons/stilllife/48x48/filesystems/gnome-fs-nfs.png" vertex="1" parent="1">
          <mxGeometry x="359.63" y="1493.9" width="48" height="48" as="geometry" />
        </mxCell>
        <mxCell id="81p-GkbOqXq8LAXijxVz-50" value="" style="aspect=fixed;html=1;points=[];align=center;image;fontSize=12;image=img/lib/mscae/Cache_Redis_Product.svg;" vertex="1" parent="1">
          <mxGeometry x="609.87" y="2307" width="114" height="95.76" as="geometry" />
        </mxCell>
        <mxCell id="81p-GkbOqXq8LAXijxVz-51" value="" style="shape=image;html=1;verticalAlign=top;verticalLabelPosition=bottom;labelBackgroundColor=#ffffff;imageAspect=0;aspect=fixed;image=https://cdn4.iconfinder.com/data/icons/redis-2/1451/Untitled-2-128.png" vertex="1" parent="1">
          <mxGeometry x="598.0699999999999" y="1765" width="128" height="128" as="geometry" />
        </mxCell>
        <mxCell id="81p-GkbOqXq8LAXijxVz-57" value="理财商城" style="text;whiteSpace=wrap;html=1;" vertex="1" parent="1">
          <mxGeometry x="638" y="1600" width="70" height="30" as="geometry" />
        </mxCell>
        <mxCell id="81p-GkbOqXq8LAXijxVz-58" value="产品销售" style="text;whiteSpace=wrap;html=1;" vertex="1" parent="1">
          <mxGeometry x="1148.38" y="1680" width="70" height="30" as="geometry" />
        </mxCell>
        <mxCell id="81p-GkbOqXq8LAXijxVz-68" value="nginx主备" style="text;html=1;strokeColor=none;fillColor=none;align=center;verticalAlign=middle;whiteSpace=wrap;rounded=0;dashed=1;" vertex="1" parent="1">
          <mxGeometry x="867" y="1500" width="67" height="20" as="geometry" />
        </mxCell>
        <mxCell id="81p-GkbOqXq8LAXijxVz-74" value="主/灾nginx" style="text;html=1;strokeColor=none;fillColor=none;align=center;verticalAlign=middle;whiteSpace=wrap;rounded=0;dashed=1;" vertex="1" parent="1">
          <mxGeometry x="347.88" y="1791" width="71.5" height="20" as="geometry" />
        </mxCell>
        <mxCell id="81p-GkbOqXq8LAXijxVz-83" value="" style="group" vertex="1" connectable="0" parent="1">
          <mxGeometry x="130" y="1461" width="141" height="128" as="geometry" />
        </mxCell>
        <mxCell id="81p-GkbOqXq8LAXijxVz-84" value="" style="shape=image;html=1;verticalAlign=top;verticalLabelPosition=bottom;labelBackgroundColor=#ffffff;imageAspect=0;aspect=fixed;image=https://cdn3.iconfinder.com/data/icons/streamline-icon-set-free-pack/48/Streamline-17-128.png" vertex="1" parent="81p-GkbOqXq8LAXijxVz-83">
          <mxGeometry width="128" height="128" as="geometry" />
        </mxCell>
        <mxCell id="81p-GkbOqXq8LAXijxVz-85" value="&lt;font color=&quot;#222222&quot; face=&quot;arial, sans-serif&quot;&gt;&lt;span style=&quot;font-size: 24px ; background-color: rgb(255 , 255 , 255)&quot;&gt;H5&lt;/span&gt;&lt;/font&gt;" style="text;whiteSpace=wrap;html=1;" vertex="1" parent="81p-GkbOqXq8LAXijxVz-83">
          <mxGeometry x="41" y="58.9" width="29" height="30" as="geometry" />
        </mxCell>
        <mxCell id="81p-GkbOqXq8LAXijxVz-99" value="" style="endArrow=none;html=1;exitX=0.5;exitY=0;exitDx=0;exitDy=0;entryX=0.572;entryY=1.004;entryDx=0;entryDy=0;entryPerimeter=0;" edge="1" parent="1" source="81p-GkbOqXq8LAXijxVz-94" target="81p-GkbOqXq8LAXijxVz-80">
          <mxGeometry width="50" height="50" relative="1" as="geometry">
            <mxPoint x="984" y="1787" as="sourcePoint" />
            <mxPoint x="1034" y="1737" as="targetPoint" />
          </mxGeometry>
        </mxCell>
        <mxCell id="81p-GkbOqXq8LAXijxVz-100" value="" style="endArrow=none;html=1;entryX=0.559;entryY=1.006;entryDx=0;entryDy=0;entryPerimeter=0;exitX=1;exitY=0.5;exitDx=0;exitDy=0;" edge="1" parent="1" source="81p-GkbOqXq8LAXijxVz-93" target="81p-GkbOqXq8LAXijxVz-80">
          <mxGeometry width="50" height="50" relative="1" as="geometry">
            <mxPoint x="1024" y="1797" as="sourcePoint" />
            <mxPoint x="1074" y="1747" as="targetPoint" />
          </mxGeometry>
        </mxCell>
        <mxCell id="81p-GkbOqXq8LAXijxVz-101" value="" style="endArrow=none;html=1;entryX=0.473;entryY=0.999;entryDx=0;entryDy=0;entryPerimeter=0;exitX=0.5;exitY=0;exitDx=0;exitDy=0;" edge="1" parent="1" source="81p-GkbOqXq8LAXijxVz-93" target="81p-GkbOqXq8LAXijxVz-77">
          <mxGeometry width="50" height="50" relative="1" as="geometry">
            <mxPoint x="684" y="1747" as="sourcePoint" />
            <mxPoint x="734" y="1697" as="targetPoint" />
          </mxGeometry>
        </mxCell>
        <mxCell id="81p-GkbOqXq8LAXijxVz-102" value="" style="endArrow=none;html=1;exitX=0.5;exitY=0;exitDx=0;exitDy=0;entryX=0.5;entryY=1;entryDx=0;entryDy=0;" edge="1" parent="1" source="81p-GkbOqXq8LAXijxVz-88" target="81p-GkbOqXq8LAXijxVz-93">
          <mxGeometry width="50" height="50" relative="1" as="geometry">
            <mxPoint x="824" y="2007" as="sourcePoint" />
            <mxPoint x="874" y="1957" as="targetPoint" />
          </mxGeometry>
        </mxCell>
        <mxCell id="81p-GkbOqXq8LAXijxVz-106" value="" style="endArrow=none;html=1;entryX=0;entryY=0.5;entryDx=0;entryDy=0;exitX=0.5;exitY=1;exitDx=0;exitDy=0;" edge="1" parent="1" source="81p-GkbOqXq8LAXijxVz-73" target="81p-GkbOqXq8LAXijxVz-88">
          <mxGeometry width="50" height="50" relative="1" as="geometry">
            <mxPoint x="444" y="1997" as="sourcePoint" />
            <mxPoint x="494" y="1947" as="targetPoint" />
          </mxGeometry>
        </mxCell>
        <mxCell id="81p-GkbOqXq8LAXijxVz-107" value="" style="endArrow=none;html=1;exitX=1.011;exitY=0.474;exitDx=0;exitDy=0;entryX=0;entryY=0.5;entryDx=0;entryDy=0;exitPerimeter=0;" edge="1" parent="1" source="81p-GkbOqXq8LAXijxVz-73" target="81p-GkbOqXq8LAXijxVz-77">
          <mxGeometry width="50" height="50" relative="1" as="geometry">
            <mxPoint x="524" y="1557" as="sourcePoint" />
            <mxPoint x="574" y="1507" as="targetPoint" />
          </mxGeometry>
        </mxCell>
        <mxCell id="81p-GkbOqXq8LAXijxVz-108" value="" style="endArrow=none;html=1;exitX=1;exitY=0.5;exitDx=0;exitDy=0;entryX=-0.022;entryY=0.541;entryDx=0;entryDy=0;entryPerimeter=0;" edge="1" parent="1" source="81p-GkbOqXq8LAXijxVz-77" target="81p-GkbOqXq8LAXijxVz-75">
          <mxGeometry width="50" height="50" relative="1" as="geometry">
            <mxPoint x="774" y="1557" as="sourcePoint" />
            <mxPoint x="824" y="1507" as="targetPoint" />
          </mxGeometry>
        </mxCell>
        <mxCell id="81p-GkbOqXq8LAXijxVz-109" value="" style="endArrow=none;html=1;exitX=1.019;exitY=0.556;exitDx=0;exitDy=0;exitPerimeter=0;entryX=0;entryY=0.5;entryDx=0;entryDy=0;" edge="1" parent="1" source="81p-GkbOqXq8LAXijxVz-75" target="81p-GkbOqXq8LAXijxVz-80">
          <mxGeometry width="50" height="50" relative="1" as="geometry">
            <mxPoint x="1034" y="1577" as="sourcePoint" />
            <mxPoint x="1084" y="1527" as="targetPoint" />
          </mxGeometry>
        </mxCell>
        <mxCell id="81p-GkbOqXq8LAXijxVz-110" value="virtual IP" style="text;html=1;strokeColor=none;fillColor=none;align=center;verticalAlign=middle;whiteSpace=wrap;rounded=0;dashed=1;" vertex="1" parent="1">
          <mxGeometry x="755.5" y="1493.9" width="50" height="20" as="geometry" />
        </mxCell>
        <mxCell id="81p-GkbOqXq8LAXijxVz-113" value="" style="group" vertex="1" connectable="0" parent="1">
          <mxGeometry x="604" y="2128" width="119.87" height="104" as="geometry" />
        </mxCell>
        <mxCell id="81p-GkbOqXq8LAXijxVz-111" value="&lt;span style=&quot;font-family: &amp;#34;helvetica&amp;#34; ; font-size: 12px ; text-align: left&quot;&gt;理财商城+产品销售&lt;/span&gt;" style="whiteSpace=wrap;html=1;fillColor=#d5e8d4;fontSize=14;strokeColor=none;verticalAlign=top;" vertex="1" parent="81p-GkbOqXq8LAXijxVz-113">
          <mxGeometry width="119.87" height="104.00000000000001" as="geometry" />
        </mxCell>
        <mxCell id="81p-GkbOqXq8LAXijxVz-112" value="" style="verticalLabelPosition=bottom;aspect=fixed;html=1;verticalAlign=top;strokeColor=none;align=center;outlineConnect=0;shape=mxgraph.citrix.1u_2u_server;" vertex="1" parent="81p-GkbOqXq8LAXijxVz-113">
          <mxGeometry x="12.000000000000114" y="42.86167275318428" width="92.633829161842" height="36.21982720228023" as="geometry" />
        </mxCell>
        <mxCell id="81p-GkbOqXq8LAXijxVz-118" value="" style="shadow=0;dashed=0;html=1;strokeColor=none;fillColor=#4495D1;labelPosition=center;verticalLabelPosition=bottom;verticalAlign=top;align=center;outlineConnect=0;shape=mxgraph.veeam.storage_cluster;" vertex="1" parent="1">
          <mxGeometry x="1150.25" y="1801" width="87" height="90" as="geometry" />
        </mxCell>
        <mxCell id="81p-GkbOqXq8LAXijxVz-119" value="" style="endArrow=none;html=1;strokeWidth=1;entryX=0;entryY=0.5;entryDx=0;entryDy=0;" edge="1" parent="1" target="81p-GkbOqXq8LAXijxVz-73">
          <mxGeometry width="50" height="50" relative="1" as="geometry">
            <mxPoint x="254" y="1540" as="sourcePoint" />
            <mxPoint x="234" y="1687" as="targetPoint" />
          </mxGeometry>
        </mxCell>
        <mxCell id="81p-GkbOqXq8LAXijxVz-120" value="" style="endArrow=none;html=1;strokeWidth=1;exitX=1;exitY=0.5;exitDx=0;exitDy=0;entryX=0;entryY=0.5;entryDx=0;entryDy=0;" edge="1" parent="1" source="81p-GkbOqXq8LAXijxVz-34" target="81p-GkbOqXq8LAXijxVz-7">
          <mxGeometry width="50" height="50" relative="1" as="geometry">
            <mxPoint x="354" y="2337" as="sourcePoint" />
            <mxPoint x="404" y="2287" as="targetPoint" />
          </mxGeometry>
        </mxCell>
        <mxCell id="81p-GkbOqXq8LAXijxVz-121" value="" style="endArrow=none;html=1;strokeWidth=1;exitX=1;exitY=0.5;exitDx=0;exitDy=0;entryX=0;entryY=0.5;entryDx=0;entryDy=0;" edge="1" parent="1" source="81p-GkbOqXq8LAXijxVz-7" target="81p-GkbOqXq8LAXijxVz-111">
          <mxGeometry width="50" height="50" relative="1" as="geometry">
            <mxPoint x="504" y="2197" as="sourcePoint" />
            <mxPoint x="554" y="2147" as="targetPoint" />
          </mxGeometry>
        </mxCell>
        <mxCell id="81p-GkbOqXq8LAXijxVz-122" value="" style="endArrow=none;html=1;strokeWidth=1;exitX=1;exitY=0.5;exitDx=0;exitDy=0;entryX=0;entryY=0.5;entryDx=0;entryDy=0;" edge="1" parent="1" source="81p-GkbOqXq8LAXijxVz-111" target="81p-GkbOqXq8LAXijxVz-116">
          <mxGeometry width="50" height="50" relative="1" as="geometry">
            <mxPoint x="844" y="2207" as="sourcePoint" />
            <mxPoint x="1130.5" y="2179.14" as="targetPoint" />
          </mxGeometry>
        </mxCell>
        <mxCell id="81p-GkbOqXq8LAXijxVz-125" value="" style="endArrow=none;html=1;strokeWidth=1;exitX=0.5;exitY=0;exitDx=0;exitDy=0;entryX=0.5;entryY=1;entryDx=0;entryDy=0;" edge="1" parent="1" source="81p-GkbOqXq8LAXijxVz-117" target="81p-GkbOqXq8LAXijxVz-111">
          <mxGeometry width="50" height="50" relative="1" as="geometry">
            <mxPoint x="844" y="2277" as="sourcePoint" />
            <mxPoint x="668" y="2247" as="targetPoint" />
          </mxGeometry>
        </mxCell>
        <mxCell id="81p-GkbOqXq8LAXijxVz-127" value="&lt;font style=&quot;font-size: 19px&quot;&gt;&lt;b&gt;&lt;i&gt;生产环境&lt;/i&gt;&lt;/b&gt;&lt;/font&gt;" style="text;html=1;strokeColor=none;fillColor=none;align=center;verticalAlign=middle;whiteSpace=wrap;rounded=0;dashed=1;strokeWidth=1;" vertex="1" parent="1">
          <mxGeometry x="90" y="1895" width="150" height="20" as="geometry" />
        </mxCell>
        <mxCell id="81p-GkbOqXq8LAXijxVz-128" value="&lt;font style=&quot;font-size: 19px&quot;&gt;&lt;b&gt;&lt;i&gt;生产测试环境&lt;/i&gt;&lt;/b&gt;&lt;/font&gt;" style="text;html=1;strokeColor=none;fillColor=none;align=center;verticalAlign=middle;whiteSpace=wrap;rounded=0;dashed=1;strokeWidth=1;" vertex="1" parent="1">
          <mxGeometry x="100" y="2080" width="150" height="20" as="geometry" />
        </mxCell>
        <mxCell id="81p-GkbOqXq8LAXijxVz-130" value="" style="endArrow=none;html=1;dashed=1;dashPattern=1 2;strokeWidth=2;" edge="1" parent="1">
          <mxGeometry width="50" height="50" relative="1" as="geometry">
            <mxPoint x="80" y="2427" as="sourcePoint" />
            <mxPoint x="1710" y="2416.5" as="targetPoint" />
          </mxGeometry>
        </mxCell>
        <mxCell id="81p-GkbOqXq8LAXijxVz-132" value="&lt;font style=&quot;font-size: 19px&quot;&gt;&lt;b&gt;&lt;i&gt;开发环境&lt;/i&gt;&lt;/b&gt;&lt;/font&gt;" style="text;html=1;strokeColor=none;fillColor=none;align=center;verticalAlign=middle;whiteSpace=wrap;rounded=0;dashed=1;strokeWidth=1;" vertex="1" parent="1">
          <mxGeometry x="77" y="2396.5" width="150" height="20" as="geometry" />
        </mxCell>
        <mxCell id="81p-GkbOqXq8LAXijxVz-133" value="" style="endArrow=none;html=1;strokeWidth=1;exitX=0.5;exitY=0;exitDx=0;exitDy=0;entryX=0;entryY=0.5;entryDx=0;entryDy=0;" edge="1" parent="1" source="81p-GkbOqXq8LAXijxVz-88" target="81p-GkbOqXq8LAXijxVz-94">
          <mxGeometry width="50" height="50" relative="1" as="geometry">
            <mxPoint x="760" y="2000" as="sourcePoint" />
            <mxPoint x="810" y="1950" as="targetPoint" />
          </mxGeometry>
        </mxCell>
        <mxCell id="81p-GkbOqXq8LAXijxVz-134" value="" style="group" vertex="1" connectable="0" parent="1">
          <mxGeometry x="807" y="2112" width="140" height="138" as="geometry" />
        </mxCell>
        <mxCell id="81p-GkbOqXq8LAXijxVz-116" value="MySQL代理" style="whiteSpace=wrap;html=1;fillColor=#f8cecc;fontSize=14;strokeColor=none;verticalAlign=top;" vertex="1" parent="81p-GkbOqXq8LAXijxVz-134">
          <mxGeometry width="140" height="138" as="geometry" />
        </mxCell>
        <mxCell id="81p-GkbOqXq8LAXijxVz-53" value="" style="shadow=0;dashed=0;html=1;strokeColor=none;fillColor=#4495D1;labelPosition=center;verticalLabelPosition=bottom;verticalAlign=top;align=center;outlineConnect=0;shape=mxgraph.veeam.storage_cluster;" vertex="1" parent="81p-GkbOqXq8LAXijxVz-134">
          <mxGeometry x="26.25" y="32.23999999999978" width="87" height="90" as="geometry" />
        </mxCell>
      </root>
    </mxGraphModel>
  </diagram>
</mxfile>
